<svg width="40" height="40" viewBox="0 0 40 40" fill="none" xmlns="http://www.w3.org/2000/svg">
<path d="M20 6.25C17.0333 6.25 14.1332 7.12973 11.6665 8.77796C9.19972 10.4262 7.27713 12.7689 6.14181 15.5097C5.0065 18.2506 4.70945 21.2666 5.28823 24.1764C5.86701 27.0861 7.29562 29.7588 9.3934 31.8566C11.4912 33.9544 14.1639 35.383 17.0737 35.9618C19.9834 36.5406 22.9994 36.2435 25.7403 35.1082C28.4811 33.9729 30.8238 32.0503 32.472 29.5836C34.1203 27.1168 35 24.2167 35 21.25C34.9955 17.2731 33.4136 13.4605 30.6016 10.6484C27.7895 7.83636 23.9769 6.25455 20 6.25ZM20 33.75C17.5277 33.75 15.111 33.0169 13.0554 31.6434C10.9998 30.2699 9.39761 28.3176 8.45151 26.0335C7.50542 23.7495 7.25788 21.2361 7.74019 18.8114C8.22251 16.3866 9.41302 14.1593 11.1612 12.4112C12.9093 10.663 15.1366 9.4725 17.5614 8.99018C19.9861 8.50787 22.4995 8.75541 24.7836 9.70151C27.0676 10.6476 29.0199 12.2498 30.3934 14.3054C31.7669 16.361 32.5 18.7777 32.5 21.25C32.4963 24.5641 31.1781 27.7413 28.8347 30.0847C26.4913 32.4281 23.3141 33.7463 20 33.75ZM27.1344 14.1156C27.2506 14.2317 27.3428 14.3696 27.4057 14.5213C27.4686 14.6731 27.501 14.8357 27.501 15C27.501 15.1643 27.4686 15.3269 27.4057 15.4787C27.3428 15.6304 27.2506 15.7683 27.1344 15.8844L20.8844 22.1344C20.7682 22.2505 20.6304 22.3426 20.4786 22.4055C20.3269 22.4683 20.1643 22.5007 20 22.5007C19.8358 22.5007 19.6731 22.4683 19.5214 22.4055C19.3696 22.3426 19.2318 22.2505 19.1156 22.1344C18.9995 22.0182 18.9074 21.8804 18.8445 21.7286C18.7817 21.5769 18.7493 21.4142 18.7493 21.25C18.7493 21.0858 18.7817 20.9231 18.8445 20.7714C18.9074 20.6196 18.9995 20.4818 19.1156 20.3656L25.3656 14.1156C25.4817 13.9994 25.6196 13.9072 25.7713 13.8443C25.9231 13.7814 26.0857 13.749 26.25 13.749C26.4143 13.749 26.5769 13.7814 26.7287 13.8443C26.8804 13.9072 27.0183 13.9994 27.1344 14.1156ZM15 2.5C15 2.16848 15.1317 1.85054 15.3661 1.61612C15.6005 1.3817 15.9185 1.25 16.25 1.25H23.75C24.0815 1.25 24.3995 1.3817 24.6339 1.61612C24.8683 1.85054 25 2.16848 25 2.5C25 2.83152 24.8683 3.14946 24.6339 3.38388C24.3995 3.6183 24.0815 3.75 23.75 3.75H16.25C15.9185 3.75 15.6005 3.6183 15.3661 3.38388C15.1317 3.14946 15 2.83152 15 2.5Z" fill="#1C1C1C"/>
</svg>
